<?xml version="1.0" encoding="UTF-8"?>
<!DOCTYPE svg PUBLIC "-//W3C//DTD SVG 1.1//EN" "http://www.w3.org/Graphics/SVG/1.1/DTD/svg11.dtd">
<svg version="1.1" xmlns="http://www.w3.org/2000/svg" xmlns:xlink="http://www.w3.org/1999/xlink" x="0" y="0" width="430" height="430" viewBox="0, 0, 430, 430">
  <g id="Background">
    <rect x="0" y="0" width="430" height="430" fill="#FFFFFF" fill-opacity="0"/>
  </g>
  <g id="Layer_3"/>
  <g id="Layer_2">
    <g>
      <path d="M72.5,72.5 L360.5,72.5 L360.5,360.5 L72.5,360.5 z" fill="#002B34"/>
      <path d="M72.5,72.5 L360.5,72.5 L360.5,360.5 L72.5,360.5 z" fill-opacity="0" stroke="#000000" stroke-width="1"/>
    </g>
  </g>
  <g id="Layer_1">
    <path d="M96,96 L336,96 L336,336 L96,336 z" fill="#FF8080" opacity="0.316"/>
    <path d="M120,120 L312,120 L312,312 L120,312 z" fill="#FF8080" opacity="0.316"/>
    <path d="M144,144 L288,144 L288,288 L144,288 z" fill="#FF8080" opacity="0.316"/>
    <path d="M168,168 L264,168 L264,264 L168,264 z" fill="#FF8080" opacity="0.316"/>
    <path d="M192,192 L240,192 L240,240 L192,240 z" fill="#FF8080" opacity="0.316"/>
  </g>
  <g id="Layer_4" display="none">
    <path d="M84,72 L348,72 C354.627,72 360,77.373 360,84 L360,348 C360,354.627 354.627,360 348,360 L84,360 C77.373,360 72,354.627 72,348 L72,84 C72,77.373 77.373,72 84,72 z" fill="#003636"/>
  </g>
  <g id="Layer_5" display="none">
    <path d="M192,-60 L204,-60 L204,-60 L192,-60 z" fill="#FF8080" opacity="0.299"/>
    <path d="M108,96 L324,96 C330.627,96 336,101.373 336,108 L336,324 C336,330.627 330.627,336 324,336 L108,336 C101.373,336 96,330.627 96,324 L96,108 C96,101.373 101.373,96 108,96 z" fill="#FF8080" opacity="0.299"/>
    <path d="M131.294,120 L300.706,120 C306.943,120 312,125.373 312,132 L312,300 C312,306.627 306.943,312 300.706,312 L131.294,312 C125.057,312 120,306.627 120,300 L120,132 C120,125.373 125.057,120 131.294,120 z" fill="#FF8080" opacity="0.299"/>
    <path d="M155.077,144 L276.923,144 C283.041,144 288,149.373 288,156 L288,276 C288,282.627 283.041,288 276.923,288 L155.077,288 C148.959,288 144,282.627 144,276 L144,156 C144,149.373 148.959,144 155.077,144 z" fill="#FF8080" opacity="0.299"/>
    <path d="M178.667,168 L253.333,168 C259.224,168 264,173.373 264,180 L264,252 C264,258.627 259.224,264 253.333,264 L178.667,264 C172.776,264 168,258.627 168,252 L168,180 C168,173.373 172.776,168 178.667,168 z" fill="#FF8080" opacity="0.299"/>
    <path d="M201.6,192 L230.4,192 C235.702,192 240,197.373 240,204 L240,228 C240,234.627 235.702,240 230.4,240 L201.6,240 C196.298,240 192,234.627 192,228 L192,204 C192,197.373 196.298,192 201.6,192 z" fill="#FF8080" opacity="0.299"/>
  </g>
</svg>
